<svg width="900" height="850" viewBox="0 0 1494 1409" fill="none" xmlns="http://www.w3.org/2000/svg">
<path d="M471.5 310.66V540.9H0.0297852V0H195.56V310.66H471.5Z" fill="#3B3E91"/>
<path d="M471.5 310.66V540.9H0.0297852V0H195.56V310.66H471.5Z" fill="#3B3E91"/>
<path d="M1271.91 0V540.9H1068.66V425.78H982.17V540.9H800.23V356.34H800.43V0H900.94V127.92H972.21V0H1078.2V127.92H1171.41V0H1271.91Z" fill="#3B3E91"/>
<path d="M1271.91 0V540.9H1068.66V425.78H982.17V540.9H800.23V356.34H800.43V0H900.94V127.92H972.21V0H1078.2V127.92H1171.41V0H1271.91Z" fill="#3B3E91"/>
<path d="M1271.91 623.15H966.73L972.21 825.99H800.44V1107.41H498.91V836.95H294.24V623.15H0C7.31 1160.41 362.44 1274.92 362.44 1274.92L656.04 1408.92C656.04 1408.92 780.18 1346.86 975.58 1235.92C951.84 1190.17 931.77 1112.92 944.03 985.82L945.26 973.01H1225.49C1225.9 971.88 1226.31 970.76 1226.71 969.63C1228.09 965.757 1229.42 961.88 1230.71 958C1229.15 951.41 1230.85 943.42 1238.31 933.88C1239.91 928.5 1241.43 923.12 1242.87 917.74C1243.02 917.2 1243.16 916.66 1243.3 916.12C1246.97 902.38 1250.22 888.714 1253.04 875.12C1253.17 874.55 1253.29 873.97 1253.41 873.39C1254.47 868.277 1255.47 863.187 1256.41 858.12V857.95C1280.23 732.15 1271.91 623.15 1271.91 623.15ZM1128.18 691.86C1130.18 692.42 1248.08 726.33 1162.18 819.71C1075.57 913.88 1150.5 949.97 1150.5 949.97C1150.5 949.97 989 914.91 1100.32 820.91C1210.64 727.79 1129.71 692.49 1128.18 691.86ZM1180.83 874.49C1251.46 806.16 1199.65 780.28 1198.67 779.8C1199.82 780.17 1275.48 805.03 1220.45 873.61C1164.99 942.71 1212.96 969.19 1212.96 969.19C1212.96 969.19 1109.53 943.49 1180.83 874.49Z" fill="#3B3E91"/>
<path d="M1271.91 623.15H966.73L972.21 825.99H800.44V1107.41H498.91V836.95H294.24V623.15H0C7.31 1160.41 362.44 1274.92 362.44 1274.92L656.04 1408.92C656.04 1408.92 780.18 1346.86 975.58 1235.92C951.84 1190.17 931.77 1112.92 944.03 985.82L945.26 973.01H1225.49C1225.9 971.88 1226.31 970.76 1226.71 969.63C1228.09 965.757 1229.42 961.88 1230.71 958C1229.15 951.41 1230.85 943.42 1238.31 933.88C1239.91 928.5 1241.43 923.12 1242.87 917.74C1243.02 917.2 1243.16 916.66 1243.3 916.12C1246.97 902.38 1250.22 888.714 1253.04 875.12C1253.17 874.55 1253.29 873.97 1253.41 873.39C1254.47 868.277 1255.47 863.187 1256.41 858.12V857.95C1280.23 732.15 1271.91 623.15 1271.91 623.15ZM1128.18 691.86C1130.18 692.42 1248.08 726.33 1162.18 819.71C1075.57 913.88 1150.5 949.97 1150.5 949.97C1150.5 949.97 989 914.91 1100.32 820.91C1210.64 727.79 1129.71 692.49 1128.18 691.86ZM1180.83 874.49C1251.46 806.16 1199.65 780.28 1198.67 779.8C1199.82 780.17 1275.48 805.03 1220.45 873.61C1164.99 942.71 1212.96 969.19 1212.96 969.19C1212.96 969.19 1109.53 943.49 1180.83 874.49Z" fill="#3B3E91"/>
<path d="M1369.16 1195.98C1367.52 1200.71 1365.73 1205.38 1363.8 1209.98L1364.8 1195.88H1365.18C1365.84 1195.93 1367.2 1195.98 1369.16 1195.98Z" fill="#5D4596"/>
<path d="M1381.86 1145.74C1381.06 1150.41 1380.17 1155.07 1379.18 1159.74V1159.66L1381.18 1145.66L1381.86 1145.74Z" fill="#5D4596"/>
<path d="M1384.51 1003.84L1382.89 991.021C1383.3 993.851 1383.89 998.181 1384.52 1003.77C1384.52 1004.06 1384.58 1004.36 1384.62 1004.66L1384.51 1003.84Z" fill="#5D4596"/>
<path d="M1387.9 1053.34L1385.38 1040.34C1385.78 1040.26 1386.47 1040.13 1387.38 1039.98C1387.62 1044.26 1387.79 1048.72 1387.9 1053.34Z" fill="#5D4596"/>
<path d="M1388.08 1054.27L1387.96 1055.7L1387.9 1053.36L1388.08 1054.27Z" fill="#5D4596"/>
<path d="M1369.16 1195.98C1367.52 1200.71 1365.73 1205.38 1363.8 1209.98L1364.8 1195.88H1365.18C1365.84 1195.93 1367.2 1195.98 1369.16 1195.98Z" fill="#5D4596"/>
<path d="M1381.86 1145.74C1381.06 1150.41 1380.17 1155.07 1379.18 1159.74V1159.66L1381.18 1145.66L1381.86 1145.74Z" fill="#5D4596"/>
<path d="M1384.51 1003.84L1382.89 991.021C1383.3 993.851 1383.89 998.181 1384.52 1003.77C1384.52 1004.06 1384.58 1004.36 1384.62 1004.66L1384.51 1003.84Z" fill="#5D4596"/>
<path d="M1387.9 1053.34L1385.38 1040.34C1385.78 1040.26 1386.47 1040.13 1387.38 1039.98C1387.62 1044.26 1387.79 1048.72 1387.9 1053.34Z" fill="#5D4596"/>
<path d="M1393.88 1284.43C1392.44 1338.72 1329.47 1340.22 1329.47 1340.22C1329.47 1340.22 1119.57 1337.99 1035.37 1340.16C951.17 1342.33 957.44 1284.43 957.44 1284.43H1011.63C1021.15 1293.08 1028.06 1296.63 1029.14 1297.16L1032.09 1298.61H1312.09L1315.81 1295.92C1320.73 1292.37 1325.44 1288.53 1329.91 1284.43H1393.88Z" fill="#3B3E91"/>
<path d="M1369.16 1195.98C1367.52 1200.71 1365.73 1205.38 1363.8 1209.98L1364.8 1195.88H1365.18C1365.84 1195.93 1367.2 1195.98 1369.16 1195.98Z" fill="#5D4596"/>
<path d="M1384.51 1003.84L1382.89 991.021C1383.3 993.851 1383.89 998.181 1384.52 1003.77C1384.52 1004.06 1384.58 1004.36 1384.62 1004.66L1384.51 1003.84Z" fill="#5D4596"/>
<path d="M1369.16 1195.98C1367.52 1200.71 1365.73 1205.38 1363.8 1209.98L1365.22 1195.9C1365.84 1195.93 1367.2 1195.98 1369.16 1195.98Z" fill="#5D4596"/>
<path d="M1381.86 1145.74C1381.06 1150.41 1380.17 1155.07 1379.18 1159.74V1159.66L1381.18 1145.66L1381.86 1145.74Z" fill="#5D4596"/>
<path d="M1384.62 1004.66L1384.51 1003.84V1003.78C1384.55 1004.06 1384.58 1004.36 1384.62 1004.66Z" fill="#5D4596"/>
<path d="M1387.9 1053.34L1385.38 1040.34C1385.78 1040.26 1386.47 1040.13 1387.38 1039.98C1387.62 1044.26 1387.79 1048.72 1387.9 1053.34Z" fill="#5D4596"/>
<path d="M1388.08 1054.27L1387.96 1055.7L1387.9 1053.36L1388.08 1054.27Z" fill="#5D4596"/>
<path d="M1492.32 1103.49C1482.8 1192.49 1411.17 1207.49 1379.17 1209.79L1379.44 1209.11C1381.2 1204.55 1382.87 1199.88 1384.44 1195.11C1386.68 1188.23 1388.71 1181.1 1390.53 1173.72C1391.73 1168.85 1392.84 1163.88 1393.86 1158.81C1408.97 1155.52 1431.77 1143.71 1442.39 1103.54C1454.21 1058.81 1421.83 1052.79 1402.09 1053.06C1401.97 1048.13 1401.79 1043.38 1401.57 1038.84C1401.19 1030.99 1400.68 1023.77 1400.13 1017.34C1399.68 1012.04 1399.2 1007.27 1398.73 1003.13C1430.12 1003.2 1502 1013.2 1492.32 1103.49Z" fill="#3B3E91"/>
<path d="M1381.86 1145.74C1381.06 1150.41 1380.17 1155.07 1379.18 1159.74V1159.66L1381.18 1145.66L1381.86 1145.74Z" fill="#5D4596"/>
<path d="M1387.9 1053.34L1385.38 1040.34C1385.78 1040.26 1386.47 1040.13 1387.38 1039.98C1387.62 1044.26 1387.79 1048.72 1387.9 1053.34Z" fill="#5D4596"/>
<path d="M1381.86 1145.74H1381.2L1379.2 1159.74V1159.82V1159.9C1376.63 1172.15 1373.29 1184.23 1369.2 1196.06C1367.2 1196.06 1365.88 1196.06 1365.26 1195.98H1364.88L1363.88 1210.08C1354.47 1232.6 1341.65 1253.38 1324.35 1270.34C1319.13 1275.48 1313.53 1280.22 1307.59 1284.51H1035.37C1035.37 1284.51 1027.8 1280.8 1017.29 1270.34C1008.67 1261.61 1001.14 1251.88 994.86 1241.34C992.54 1237.54 990.23 1233.42 987.93 1228.98C965.59 1185.68 946.2 1111.33 958.17 987.24H1382.3C1382.3 987.24 1382.52 988.57 1382.89 991.05L1384.51 1003.87L1384.62 1004.69V1004.98C1385.62 1013.98 1386.7 1025.98 1387.38 1039.98C1386.44 1040.13 1385.75 1040.26 1385.38 1040.34L1387.9 1053.34L1387.96 1055.68C1388.51 1082.25 1387.33 1113.88 1381.86 1145.74Z" fill="#3B3E91"/>
<path d="M1381.86 1145.74C1381.06 1150.41 1380.17 1155.07 1379.18 1159.74V1159.66L1381.18 1145.66L1381.86 1145.74Z" fill="#5D4596"/>
<path d="M1270.13 925.28C1241.66 960.76 1257.4 978.02 1263.47 982.81C1264.1 983.327 1264.77 983.798 1265.47 984.22C1265.26 984.22 1263.47 983.71 1260.82 982.81C1255.03 980.874 1249.49 978.238 1244.34 974.96C1239.88 972.04 1235.74 968.37 1233.11 963.87C1232.03 962.049 1231.23 960.077 1230.74 958.02C1229.18 951.43 1230.88 943.44 1238.34 933.9C1240.1 931.655 1241.99 929.515 1244 927.49C1244.55 926.93 1245.12 926.36 1245.71 925.79C1256.01 915.79 1262.09 907.32 1265.35 900.14C1267.97 894.42 1268.79 889.54 1268.54 885.43C1267.89 874.87 1260.18 869.43 1257.54 867.86C1257.07 867.58 1256.76 867.42 1256.7 867.39C1256.64 867.36 1257.08 867.51 1257.57 867.69C1262.23 869.465 1266.61 871.911 1270.57 874.95C1281.33 883.34 1291.09 899.17 1270.13 925.28Z" fill="#3B3E91"/>
</svg>
