<svg width="412" height="449" viewBox="0 0 412 449" fill="none" xmlns="http://www.w3.org/2000/svg">
<g filter="url(#filter0_d_228_103)">
<path fill-rule="evenodd" clip-rule="evenodd" d="M249.953 36H274.136V66.7958H294.472V36H321.953V66.7958H345.586V36H371.418V173.481H320.853V144.885H294.472V172.931L249.953 173.481V36Z" fill="#3F409B"/>
<path fill-rule="evenodd" clip-rule="evenodd" d="M40.5496 36H90.5647V115.739H161.465V173.481H40L40.5496 36Z" fill="#3F409B"/>
<path fill-rule="evenodd" clip-rule="evenodd" d="M293.923 202.077V253.22H249.953V325.261H169.709L170.259 253.77H114.198V202.077H40V218.575V226.824L40.5496 233.973L41.0992 241.122L41.6488 248.271L43.2977 255.42L43.8473 261.469L45.4962 268.068L46.5954 274.118L48.2442 279.617L50.4427 285.116L52.6412 290.615L55.3893 296.115L57.5877 301.064L60.3358 305.463L63.0839 310.413L66.3816 315.362L69.6793 319.761L72.977 324.161L76.2747 328.01L80.122 331.86L84.5189 336.259L87.8166 339.559L92.2135 343.408L96.6105 347.258L101.557 350.007L105.404 353.857L110.351 356.606L115.847 359.906L120.794 362.656L125.74 365.955L131.236 368.705L136.732 372.004L142.778 374.754H143.328L147.175 376.954L150.473 378.603L154.87 380.253L158.717 382.453L162.015 384.103L166.412 386.302L170.809 388.502L174.106 390.152L178.503 391.802L182.9 394.001L187.297 395.651L191.144 397.301L199.938 401.15L209.282 405L217.526 401.15L226.87 397.301L235.114 394.001L242.808 390.152L251.602 386.302L259.297 382.453L266.992 378.603L274.686 374.754L281.831 371.454L288.427 367.055L296.121 362.656L302.167 358.806L308.762 354.407L314.808 350.007L320.304 345.058L325.8 340.109L331.297 334.609L336.243 330.21L341.19 324.161L345.037 318.662L348.884 312.612L353.281 305.463L356.029 298.864L359.327 292.265L362.075 284.566L364.823 276.867L366.472 268.618L368.121 259.82L369.77 251.571L370.869 241.672L371.419 232.323V221.875V202.077H293.923Z" fill="#3F409B"/>
</g>
<defs>
<filter id="filter0_d_228_103" x="0" y="0" width="411.419" height="449" filterUnits="userSpaceOnUse" color-interpolation-filters="sRGB">
<feFlood flood-opacity="0" result="BackgroundImageFix"/>
<feColorMatrix in="SourceAlpha" type="matrix" values="0 0 0 0 0 0 0 0 0 0 0 0 0 0 0 0 0 0 127 0" result="hardAlpha"/>
<feOffset dy="4"/>
<feGaussianBlur stdDeviation="20"/>
<feComposite in2="hardAlpha" operator="out"/>
<feColorMatrix type="matrix" values="0 0 0 0 0 0 0 0 0 0 0 0 0 0 0 0 0 0 0.3 0"/>
<feBlend mode="normal" in2="BackgroundImageFix" result="effect1_dropShadow_228_103"/>
<feBlend mode="normal" in="SourceGraphic" in2="effect1_dropShadow_228_103" result="shape"/>
</filter>
</defs>
</svg>
