<svg width="39" height="35" viewBox="0 0 39 35" fill="none" xmlns="http://www.w3.org/2000/svg">
<path d="M38.0852 0H36.9985V35H38.0852V0Z" fill="white"/>
<path fill-rule="evenodd" clip-rule="evenodd" d="M19.7671 0.155334H22.0439V3.05474H23.9585V0.155334H26.5458V3.05474H28.7709V0.155334H31.203V13.0991H26.4423V10.4068H23.9585V13.0473L19.7671 13.0991V0.155334Z" fill="white"/>
<path fill-rule="evenodd" clip-rule="evenodd" d="M0.051746 0.155334H4.76063V7.66273H11.4359V13.0991H0L0.051746 0.155334Z" fill="white"/>
<path fill-rule="evenodd" clip-rule="evenodd" d="M23.9067 15.7914V20.6065H19.767V27.3891H12.2121L12.2638 20.6583H6.98571V15.7914H0V17.3447V18.1213L0.051746 18.7944L0.103492 19.4675L0.155238 20.1406L0.310476 20.8136L0.362222 21.3832L0.51746 22.0045L0.620952 22.574L0.77619 23.0917L0.983175 23.6095L1.19016 24.1272L1.44889 24.645L1.65587 25.111L1.9146 25.5252L2.17333 25.9911L2.48381 26.4571L2.79429 26.8713L3.10476 27.2855L3.41524 27.648L3.77746 28.0104L4.19143 28.4246L4.5019 28.7352L4.91587 29.0977L5.32984 29.4601L5.79556 29.719L6.15778 30.0814L6.62349 30.3403L7.14095 30.6509L7.60667 30.9098L8.07238 31.2204L8.58984 31.4793L9.1073 31.79L9.67651 32.0488H9.72825L10.0905 32.2559L10.401 32.4113L10.8149 32.5666L11.1771 32.7737L11.4876 32.929L11.9016 33.1361L12.3156 33.3432L12.626 33.4985L13.04 33.6539L13.454 33.861L13.8679 34.0163L14.2302 34.1716L15.0581 34.534L15.9378 34.8965L16.714 34.534L17.5936 34.1716L18.3698 33.861L19.0943 33.4985L19.9222 33.1361L20.6467 32.7737L21.3711 32.4113L22.0956 32.0488L22.7683 31.7382L23.3892 31.324L24.1136 30.9098L24.6829 30.5474L25.3038 30.1332L25.873 29.719L26.3905 29.253L26.9079 28.787L27.4254 28.2693L27.8911 27.8551L28.3568 27.2855L28.719 26.7678L29.0813 26.1982L29.4952 25.5252L29.754 24.9039L30.0644 24.2826L30.3232 23.5577L30.5819 22.8329L30.7371 22.0562L30.8924 21.2278L31.0476 20.4512L31.1511 19.5193L31.2029 18.6391V17.6553V15.7914H23.9067Z" fill="white"/>
</svg>
